G04 #@! TF.GenerationSoftware,KiCad,Pcbnew,6.0.9+dfsg-1*
G04 #@! TF.CreationDate,2022-11-16T11:41:45+08:00*
G04 #@! TF.ProjectId,io,696f2e6b-6963-4616-945f-706362585858,a*
G04 #@! TF.SameCoordinates,Original*
G04 #@! TF.FileFunction,Copper,L2,Bot*
G04 #@! TF.FilePolarity,Positive*
%FSLAX46Y46*%
G04 Gerber Fmt 4.6, Leading zero omitted, Abs format (unit mm)*
G04 Created by KiCad (PCBNEW 6.0.9+dfsg-1) date 2022-11-16 11:41:45*
%MOMM*%
%LPD*%
G01*
G04 APERTURE LIST*
G04 #@! TA.AperFunction,ComponentPad*
%ADD10R,1.700000X1.700000*%
G04 #@! TD*
G04 #@! TA.AperFunction,ComponentPad*
%ADD11O,1.700000X1.700000*%
G04 #@! TD*
G04 #@! TA.AperFunction,ViaPad*
%ADD12C,0.700000*%
G04 #@! TD*
G04 #@! TA.AperFunction,Conductor*
%ADD13C,0.228600*%
G04 #@! TD*
G04 APERTURE END LIST*
D10*
G04 #@! TO.P,J1,1,Pin_1*
G04 #@! TO.N,+3.3V*
X178500000Y-76200000D03*
D11*
G04 #@! TO.P,J1,2,Pin_2*
X181040000Y-76200000D03*
G04 #@! TO.P,J1,3,Pin_3*
G04 #@! TO.N,GND*
X178500000Y-78740000D03*
G04 #@! TO.P,J1,4,Pin_4*
X181040000Y-78740000D03*
G04 #@! TO.P,J1,5,Pin_5*
G04 #@! TO.N,L0_7*
X178500000Y-81280000D03*
G04 #@! TO.P,J1,6,Pin_6*
G04 #@! TO.N,L0_6*
X181040000Y-81280000D03*
G04 #@! TO.P,J1,7,Pin_7*
G04 #@! TO.N,L0_5*
X178500000Y-83820000D03*
G04 #@! TO.P,J1,8,Pin_8*
G04 #@! TO.N,L0_4*
X181040000Y-83820000D03*
G04 #@! TO.P,J1,9,Pin_9*
G04 #@! TO.N,L0_3*
X178500000Y-86360000D03*
G04 #@! TO.P,J1,10,Pin_10*
G04 #@! TO.N,L0_2*
X181040000Y-86360000D03*
G04 #@! TO.P,J1,11,Pin_11*
G04 #@! TO.N,L0_1*
X178500000Y-88900000D03*
G04 #@! TO.P,J1,12,Pin_12*
G04 #@! TO.N,L0_0*
X181040000Y-88900000D03*
G04 #@! TD*
D12*
G04 #@! TO.N,GND*
X147320000Y-92710000D03*
X167640000Y-92710000D03*
X157480000Y-92710000D03*
X179705000Y-73660000D03*
X180975000Y-92075000D03*
X179705000Y-92075000D03*
X178435000Y-92075000D03*
X137160000Y-92710000D03*
X180975000Y-73660000D03*
X142240000Y-92710000D03*
X162560000Y-92710000D03*
X178435000Y-73660000D03*
X152400000Y-92710000D03*
G04 #@! TO.N,L0_0*
X138430000Y-84455000D03*
G04 #@! TO.N,L0_1*
X143510000Y-84455000D03*
G04 #@! TO.N,L0_2*
X148590000Y-84455000D03*
G04 #@! TO.N,L0_3*
X153670000Y-84455000D03*
G04 #@! TO.N,L0_4*
X158750000Y-84455000D03*
G04 #@! TO.N,L0_5*
X163830000Y-84455000D03*
G04 #@! TO.N,L0_6*
X168910000Y-84455000D03*
G04 #@! TO.N,L0_7*
X173990000Y-84455000D03*
G04 #@! TD*
D13*
G04 #@! TO.N,L0_0*
X179135000Y-90805000D02*
X181040000Y-88900000D01*
X138430000Y-84455000D02*
X144780000Y-90805000D01*
X144780000Y-90805000D02*
X179135000Y-90805000D01*
G04 #@! TO.N,L0_1*
X178500000Y-88900000D02*
X177230000Y-90170000D01*
X149225000Y-90170000D02*
X143510000Y-84455000D01*
X177230000Y-90170000D02*
X149225000Y-90170000D01*
G04 #@! TO.N,L0_2*
X151636503Y-87501503D02*
X148590000Y-84455000D01*
X181040000Y-86360000D02*
X179898497Y-87501503D01*
X179898497Y-87501503D02*
X151636503Y-87501503D01*
G04 #@! TO.N,L0_3*
X177738998Y-87121002D02*
X178500000Y-86360000D01*
X153670000Y-84455000D02*
X156336002Y-87121002D01*
X156336002Y-87121002D02*
X177738998Y-87121002D01*
G04 #@! TO.N,L0_4*
X179616700Y-85243300D02*
X181040000Y-83820000D01*
X158750000Y-84455000D02*
X161035501Y-86740501D01*
X176117609Y-86740501D02*
X177614810Y-85243300D01*
X177614810Y-85243300D02*
X179616700Y-85243300D01*
X161035501Y-86740501D02*
X176117609Y-86740501D01*
G04 #@! TO.N,L0_5*
X163830000Y-84455000D02*
X165735000Y-86360000D01*
X165735000Y-86360000D02*
X175960000Y-86360000D01*
X175960000Y-86360000D02*
X178500000Y-83820000D01*
G04 #@! TO.N,L0_6*
X170180000Y-85725000D02*
X174625000Y-85725000D01*
X168910000Y-84455000D02*
X170180000Y-85725000D01*
X174625000Y-85725000D02*
X177646700Y-82703300D01*
X179616700Y-82703300D02*
X181040000Y-81280000D01*
X177646700Y-82703300D02*
X179616700Y-82703300D01*
G04 #@! TO.N,L0_7*
X173990000Y-84455000D02*
X177165000Y-81280000D01*
X177165000Y-81280000D02*
X178500000Y-81280000D01*
G04 #@! TD*
G04 #@! TA.AperFunction,Conductor*
G04 #@! TO.N,GND*
G36*
X182065238Y-72560493D02*
G01*
X182090958Y-72605042D01*
X182092100Y-72618100D01*
X182092100Y-75740777D01*
X182074507Y-75789115D01*
X182029958Y-75814835D01*
X181979300Y-75805902D01*
X181950502Y-75776081D01*
X181950255Y-75775617D01*
X181879379Y-75642318D01*
X181755072Y-75489903D01*
X181603528Y-75364535D01*
X181430520Y-75270990D01*
X181242637Y-75212830D01*
X181099832Y-75197821D01*
X181050690Y-75192656D01*
X181050689Y-75192656D01*
X181047035Y-75192272D01*
X180949101Y-75201184D01*
X180854824Y-75209764D01*
X180854823Y-75209764D01*
X180851166Y-75210097D01*
X180847641Y-75211134D01*
X180847638Y-75211135D01*
X180729440Y-75245923D01*
X180662489Y-75265628D01*
X180488192Y-75356748D01*
X180334912Y-75479988D01*
X180208489Y-75630653D01*
X180113739Y-75803004D01*
X180054269Y-75990476D01*
X180032345Y-76185930D01*
X180032653Y-76189598D01*
X180032653Y-76189601D01*
X180035889Y-76228138D01*
X180048803Y-76381919D01*
X180103015Y-76570979D01*
X180192916Y-76745908D01*
X180315083Y-76900044D01*
X180317877Y-76902422D01*
X180317878Y-76902423D01*
X180352691Y-76932051D01*
X180464862Y-77027516D01*
X180468063Y-77029305D01*
X180468066Y-77029307D01*
X180506656Y-77050874D01*
X180636547Y-77123467D01*
X180640044Y-77124603D01*
X180640048Y-77124605D01*
X180730755Y-77154077D01*
X180823600Y-77184244D01*
X180930984Y-77197049D01*
X181015237Y-77207096D01*
X181015239Y-77207096D01*
X181018895Y-77207532D01*
X181214994Y-77192443D01*
X181330354Y-77160234D01*
X181400883Y-77140542D01*
X181400885Y-77140541D01*
X181404428Y-77139552D01*
X181544727Y-77068682D01*
X181576697Y-77052533D01*
X181576698Y-77052532D01*
X181579981Y-77050874D01*
X181734966Y-76929786D01*
X181863480Y-76780901D01*
X181951515Y-76625933D01*
X181990688Y-76592594D01*
X182042126Y-76592235D01*
X182081761Y-76625024D01*
X182092100Y-76663078D01*
X182092100Y-78281843D01*
X182074507Y-78330181D01*
X182029958Y-78355901D01*
X181979300Y-78346968D01*
X181950502Y-78317147D01*
X181880684Y-78185839D01*
X181876639Y-78179751D01*
X181757041Y-78033109D01*
X181751878Y-78027910D01*
X181606078Y-77907294D01*
X181600016Y-77903205D01*
X181433557Y-77813201D01*
X181426813Y-77810366D01*
X181246047Y-77754410D01*
X181238880Y-77752939D01*
X181205587Y-77749440D01*
X181195100Y-77752055D01*
X181192400Y-77755771D01*
X181192400Y-79720421D01*
X181196097Y-79730578D01*
X181200403Y-79733064D01*
X181211238Y-79732230D01*
X181218449Y-79730959D01*
X181400701Y-79680073D01*
X181407534Y-79677422D01*
X181576428Y-79592108D01*
X181582611Y-79588184D01*
X181731720Y-79471687D01*
X181737023Y-79466637D01*
X181860664Y-79323397D01*
X181864889Y-79317408D01*
X181951514Y-79164921D01*
X181990687Y-79131581D01*
X182042126Y-79131222D01*
X182081761Y-79164011D01*
X182092100Y-79202065D01*
X182092100Y-80820777D01*
X182074507Y-80869115D01*
X182029958Y-80894835D01*
X181979300Y-80885902D01*
X181950502Y-80856081D01*
X181950255Y-80855617D01*
X181879379Y-80722318D01*
X181755072Y-80569903D01*
X181603528Y-80444535D01*
X181430520Y-80350990D01*
X181242637Y-80292830D01*
X181119766Y-80279916D01*
X181050690Y-80272656D01*
X181050689Y-80272656D01*
X181047035Y-80272272D01*
X180949101Y-80281184D01*
X180854824Y-80289764D01*
X180854823Y-80289764D01*
X180851166Y-80290097D01*
X180847641Y-80291134D01*
X180847638Y-80291135D01*
X180666019Y-80344589D01*
X180662489Y-80345628D01*
X180488192Y-80436748D01*
X180334912Y-80559988D01*
X180208489Y-80710653D01*
X180113739Y-80883004D01*
X180054269Y-81070476D01*
X180032345Y-81265930D01*
X180032653Y-81269598D01*
X180032653Y-81269601D01*
X180035889Y-81308138D01*
X180048803Y-81461919D01*
X180103015Y-81650979D01*
X180141813Y-81726473D01*
X180148260Y-81777505D01*
X180128103Y-81814019D01*
X179528048Y-82414074D01*
X179481428Y-82435814D01*
X179474874Y-82436100D01*
X178505588Y-82436100D01*
X178484775Y-82428525D01*
X178476236Y-82434113D01*
X178459064Y-82436100D01*
X177680425Y-82436100D01*
X177665754Y-82434655D01*
X177653965Y-82432310D01*
X177653964Y-82432310D01*
X177646700Y-82430865D01*
X177542443Y-82451603D01*
X177518257Y-82467764D01*
X177454059Y-82510659D01*
X177449946Y-82516815D01*
X177443263Y-82526817D01*
X177433910Y-82538213D01*
X174536348Y-85435774D01*
X174489728Y-85457514D01*
X174483174Y-85457800D01*
X170321825Y-85457800D01*
X170273487Y-85440207D01*
X170268651Y-85435774D01*
X169428396Y-84595518D01*
X169406656Y-84548898D01*
X169407412Y-84529868D01*
X169417436Y-84470283D01*
X169417919Y-84467413D01*
X169418071Y-84455000D01*
X169417659Y-84452120D01*
X169417183Y-84448793D01*
X173481967Y-84448793D01*
X173482661Y-84454100D01*
X173482661Y-84454103D01*
X173483159Y-84457909D01*
X173500645Y-84591630D01*
X173558662Y-84723484D01*
X173562107Y-84727582D01*
X173562108Y-84727584D01*
X173575138Y-84743085D01*
X173651354Y-84833755D01*
X173771270Y-84913577D01*
X173908769Y-84956535D01*
X173982871Y-84957893D01*
X174047436Y-84959077D01*
X174047438Y-84959077D01*
X174052798Y-84959175D01*
X174057969Y-84957765D01*
X174057971Y-84957765D01*
X174133695Y-84937120D01*
X174191779Y-84921285D01*
X174286217Y-84863300D01*
X174309970Y-84848716D01*
X174309973Y-84848714D01*
X174314539Y-84845910D01*
X174332354Y-84826229D01*
X174407612Y-84743085D01*
X174411210Y-84739110D01*
X174416795Y-84727584D01*
X174471682Y-84614296D01*
X174471682Y-84614295D01*
X174474020Y-84609470D01*
X174497919Y-84467413D01*
X174498071Y-84455000D01*
X174497183Y-84448793D01*
X174487094Y-84378353D01*
X174497657Y-84328009D01*
X174508360Y-84314518D01*
X177253652Y-81569226D01*
X177300272Y-81547486D01*
X177306826Y-81547200D01*
X177476590Y-81547200D01*
X177524928Y-81564793D01*
X177548877Y-81601672D01*
X177563015Y-81650979D01*
X177652916Y-81825908D01*
X177775083Y-81980044D01*
X177777877Y-81982422D01*
X177777878Y-81982423D01*
X177812691Y-82012051D01*
X177924862Y-82107516D01*
X177928063Y-82109305D01*
X177928066Y-82109307D01*
X177966656Y-82130874D01*
X178096547Y-82203467D01*
X178100044Y-82204603D01*
X178100048Y-82204605D01*
X178192615Y-82234681D01*
X178283600Y-82264244D01*
X178467968Y-82286229D01*
X178478376Y-82291487D01*
X178479868Y-82290235D01*
X178499819Y-82285922D01*
X178509704Y-82285161D01*
X178674994Y-82272443D01*
X178789061Y-82240595D01*
X178860883Y-82220542D01*
X178860885Y-82220541D01*
X178864428Y-82219552D01*
X179039981Y-82130874D01*
X179194966Y-82009786D01*
X179323480Y-81860901D01*
X179399847Y-81726471D01*
X179418810Y-81693091D01*
X179418812Y-81693088D01*
X179420628Y-81689890D01*
X179482710Y-81503266D01*
X179507360Y-81308138D01*
X179507753Y-81280000D01*
X179507548Y-81277907D01*
X179488921Y-81087927D01*
X179488920Y-81087922D01*
X179488561Y-81084260D01*
X179431714Y-80895975D01*
X179339379Y-80722318D01*
X179215072Y-80569903D01*
X179063528Y-80444535D01*
X178890520Y-80350990D01*
X178702637Y-80292830D01*
X178579766Y-80279916D01*
X178510690Y-80272656D01*
X178510689Y-80272656D01*
X178507035Y-80272272D01*
X178409101Y-80281184D01*
X178314824Y-80289764D01*
X178314823Y-80289764D01*
X178311166Y-80290097D01*
X178307641Y-80291134D01*
X178307638Y-80291135D01*
X178126019Y-80344589D01*
X178122489Y-80345628D01*
X177948192Y-80436748D01*
X177794912Y-80559988D01*
X177668489Y-80710653D01*
X177573739Y-80883004D01*
X177569986Y-80894835D01*
X177549207Y-80960338D01*
X177517821Y-81001094D01*
X177477527Y-81012800D01*
X177198725Y-81012800D01*
X177184054Y-81011355D01*
X177172265Y-81009010D01*
X177172264Y-81009010D01*
X177165000Y-81007565D01*
X177060743Y-81028303D01*
X177007254Y-81064044D01*
X177007252Y-81064045D01*
X176982279Y-81080731D01*
X176972359Y-81087359D01*
X176968246Y-81093515D01*
X176961565Y-81103514D01*
X176952212Y-81114910D01*
X174134309Y-83932813D01*
X174087689Y-83954553D01*
X174070135Y-83954017D01*
X174065098Y-83952510D01*
X174059746Y-83952477D01*
X174059744Y-83952477D01*
X173992370Y-83952066D01*
X173921047Y-83951630D01*
X173915897Y-83953102D01*
X173915896Y-83953102D01*
X173910819Y-83954553D01*
X173782539Y-83991215D01*
X173778013Y-83994071D01*
X173778010Y-83994072D01*
X173700043Y-84043266D01*
X173660709Y-84068084D01*
X173653550Y-84076190D01*
X173568897Y-84172041D01*
X173568895Y-84172044D01*
X173565351Y-84176057D01*
X173504129Y-84306454D01*
X173481967Y-84448793D01*
X169417183Y-84448793D01*
X169398409Y-84317704D01*
X169398408Y-84317700D01*
X169397649Y-84312401D01*
X169338026Y-84181266D01*
X169333538Y-84176057D01*
X169247487Y-84076190D01*
X169247484Y-84076187D01*
X169243993Y-84072136D01*
X169239502Y-84069225D01*
X169127604Y-83996697D01*
X169127603Y-83996697D01*
X169123111Y-83993785D01*
X169046912Y-83970997D01*
X168990232Y-83954045D01*
X168990229Y-83954045D01*
X168985098Y-83952510D01*
X168979743Y-83952477D01*
X168979741Y-83952477D01*
X168914524Y-83952079D01*
X168841047Y-83951630D01*
X168835897Y-83953102D01*
X168835896Y-83953102D01*
X168830819Y-83954553D01*
X168702539Y-83991215D01*
X168698013Y-83994071D01*
X168698010Y-83994072D01*
X168620043Y-84043266D01*
X168580709Y-84068084D01*
X168573550Y-84076190D01*
X168488897Y-84172041D01*
X168488895Y-84172044D01*
X168485351Y-84176057D01*
X168424129Y-84306454D01*
X168401967Y-84448793D01*
X168402661Y-84454100D01*
X168402661Y-84454103D01*
X168403159Y-84457909D01*
X168420645Y-84591630D01*
X168478662Y-84723484D01*
X168482107Y-84727582D01*
X168482108Y-84727584D01*
X168495138Y-84743085D01*
X168571354Y-84833755D01*
X168691270Y-84913577D01*
X168828769Y-84956535D01*
X168902871Y-84957893D01*
X168967436Y-84959077D01*
X168967438Y-84959077D01*
X168972798Y-84959175D01*
X168980024Y-84957205D01*
X168980593Y-84957050D01*
X168982463Y-84957205D01*
X168983284Y-84957103D01*
X168983305Y-84957275D01*
X169031856Y-84961308D01*
X169053549Y-84976427D01*
X169967210Y-85890087D01*
X169976562Y-85901482D01*
X169987359Y-85917641D01*
X169993516Y-85921755D01*
X170043381Y-85955073D01*
X170073799Y-85996556D01*
X170070435Y-86047886D01*
X170034864Y-86085045D01*
X170001603Y-86092800D01*
X165876826Y-86092800D01*
X165828488Y-86075207D01*
X165823652Y-86070774D01*
X164348396Y-84595518D01*
X164326656Y-84548898D01*
X164327412Y-84529868D01*
X164337436Y-84470283D01*
X164337919Y-84467413D01*
X164338071Y-84455000D01*
X164337659Y-84452120D01*
X164318409Y-84317704D01*
X164318408Y-84317700D01*
X164317649Y-84312401D01*
X164258026Y-84181266D01*
X164253538Y-84176057D01*
X164167487Y-84076190D01*
X164167484Y-84076187D01*
X164163993Y-84072136D01*
X164159502Y-84069225D01*
X164047604Y-83996697D01*
X164047603Y-83996697D01*
X164043111Y-83993785D01*
X163966912Y-83970997D01*
X163910232Y-83954045D01*
X163910229Y-83954045D01*
X163905098Y-83952510D01*
X163899743Y-83952477D01*
X163899741Y-83952477D01*
X163834524Y-83952079D01*
X163761047Y-83951630D01*
X163755897Y-83953102D01*
X163755896Y-83953102D01*
X163750819Y-83954553D01*
X163622539Y-83991215D01*
X163618013Y-83994071D01*
X163618010Y-83994072D01*
X163540043Y-84043266D01*
X163500709Y-84068084D01*
X163493550Y-84076190D01*
X163408897Y-84172041D01*
X163408895Y-84172044D01*
X163405351Y-84176057D01*
X163344129Y-84306454D01*
X163321967Y-84448793D01*
X163322661Y-84454100D01*
X163322661Y-84454103D01*
X163323159Y-84457909D01*
X163340645Y-84591630D01*
X163398662Y-84723484D01*
X163402107Y-84727582D01*
X163402108Y-84727584D01*
X163415138Y-84743085D01*
X163491354Y-84833755D01*
X163611270Y-84913577D01*
X163748769Y-84956535D01*
X163822871Y-84957893D01*
X163887436Y-84959077D01*
X163887438Y-84959077D01*
X163892798Y-84959175D01*
X163900024Y-84957205D01*
X163900593Y-84957050D01*
X163902463Y-84957205D01*
X163903284Y-84957103D01*
X163903305Y-84957275D01*
X163951856Y-84961308D01*
X163973549Y-84976427D01*
X165342049Y-86344927D01*
X165363789Y-86391547D01*
X165350475Y-86441234D01*
X165308338Y-86470739D01*
X165288875Y-86473301D01*
X161177327Y-86473301D01*
X161128989Y-86455708D01*
X161124153Y-86451275D01*
X159268396Y-84595518D01*
X159246656Y-84548898D01*
X159247412Y-84529868D01*
X159257436Y-84470283D01*
X159257919Y-84467413D01*
X159258071Y-84455000D01*
X159257659Y-84452120D01*
X159238409Y-84317704D01*
X159238408Y-84317700D01*
X159237649Y-84312401D01*
X159178026Y-84181266D01*
X159173538Y-84176057D01*
X159087487Y-84076190D01*
X159087484Y-84076187D01*
X159083993Y-84072136D01*
X159079502Y-84069225D01*
X158967604Y-83996697D01*
X158967603Y-83996697D01*
X158963111Y-83993785D01*
X158886912Y-83970997D01*
X158830232Y-83954045D01*
X158830229Y-83954045D01*
X158825098Y-83952510D01*
X158819743Y-83952477D01*
X158819741Y-83952477D01*
X158754524Y-83952079D01*
X158681047Y-83951630D01*
X158675897Y-83953102D01*
X158675896Y-83953102D01*
X158670819Y-83954553D01*
X158542539Y-83991215D01*
X158538013Y-83994071D01*
X158538010Y-83994072D01*
X158460043Y-84043266D01*
X158420709Y-84068084D01*
X158413550Y-84076190D01*
X158328897Y-84172041D01*
X158328895Y-84172044D01*
X158325351Y-84176057D01*
X158264129Y-84306454D01*
X158241967Y-84448793D01*
X158242661Y-84454100D01*
X158242661Y-84454103D01*
X158243159Y-84457909D01*
X158260645Y-84591630D01*
X158318662Y-84723484D01*
X158322107Y-84727582D01*
X158322108Y-84727584D01*
X158335138Y-84743085D01*
X158411354Y-84833755D01*
X158531270Y-84913577D01*
X158668769Y-84956535D01*
X158742871Y-84957893D01*
X158807436Y-84959077D01*
X158807438Y-84959077D01*
X158812798Y-84959175D01*
X158820024Y-84957205D01*
X158820593Y-84957050D01*
X158822463Y-84957205D01*
X158823284Y-84957103D01*
X158823305Y-84957275D01*
X158871856Y-84961308D01*
X158893549Y-84976427D01*
X160642550Y-86725428D01*
X160664290Y-86772048D01*
X160650976Y-86821735D01*
X160608839Y-86851240D01*
X160589376Y-86853802D01*
X156477827Y-86853802D01*
X156429489Y-86836209D01*
X156424653Y-86831776D01*
X154188396Y-84595518D01*
X154166656Y-84548898D01*
X154167412Y-84529868D01*
X154177436Y-84470283D01*
X154177919Y-84467413D01*
X154178071Y-84455000D01*
X154177659Y-84452120D01*
X154158409Y-84317704D01*
X154158408Y-84317700D01*
X154157649Y-84312401D01*
X154098026Y-84181266D01*
X154093538Y-84176057D01*
X154007487Y-84076190D01*
X154007484Y-84076187D01*
X154003993Y-84072136D01*
X153999502Y-84069225D01*
X153887604Y-83996697D01*
X153887603Y-83996697D01*
X153883111Y-83993785D01*
X153806912Y-83970997D01*
X153750232Y-83954045D01*
X153750229Y-83954045D01*
X153745098Y-83952510D01*
X153739743Y-83952477D01*
X153739741Y-83952477D01*
X153674524Y-83952079D01*
X153601047Y-83951630D01*
X153595897Y-83953102D01*
X153595896Y-83953102D01*
X153590819Y-83954553D01*
X153462539Y-83991215D01*
X153458013Y-83994071D01*
X153458010Y-83994072D01*
X153380043Y-84043266D01*
X153340709Y-84068084D01*
X153333550Y-84076190D01*
X153248897Y-84172041D01*
X153248895Y-84172044D01*
X153245351Y-84176057D01*
X153184129Y-84306454D01*
X153161967Y-84448793D01*
X153162661Y-84454100D01*
X153162661Y-84454103D01*
X153163159Y-84457909D01*
X153180645Y-84591630D01*
X153238662Y-84723484D01*
X153242107Y-84727582D01*
X153242108Y-84727584D01*
X153255138Y-84743085D01*
X153331354Y-84833755D01*
X153451270Y-84913577D01*
X153588769Y-84956535D01*
X153662871Y-84957893D01*
X153727436Y-84959077D01*
X153727438Y-84959077D01*
X153732798Y-84959175D01*
X153740024Y-84957205D01*
X153740593Y-84957050D01*
X153742463Y-84957205D01*
X153743284Y-84957103D01*
X153743305Y-84957275D01*
X153791856Y-84961308D01*
X153813549Y-84976427D01*
X154922168Y-86085045D01*
X155943052Y-87105929D01*
X155964792Y-87152549D01*
X155951478Y-87202236D01*
X155909341Y-87231741D01*
X155889878Y-87234303D01*
X151778329Y-87234303D01*
X151729991Y-87216710D01*
X151725155Y-87212277D01*
X149108396Y-84595518D01*
X149086656Y-84548898D01*
X149087412Y-84529868D01*
X149097436Y-84470283D01*
X149097919Y-84467413D01*
X149098071Y-84455000D01*
X149097659Y-84452120D01*
X149078409Y-84317704D01*
X149078408Y-84317700D01*
X149077649Y-84312401D01*
X149018026Y-84181266D01*
X149013538Y-84176057D01*
X148927487Y-84076190D01*
X148927484Y-84076187D01*
X148923993Y-84072136D01*
X148919502Y-84069225D01*
X148807604Y-83996697D01*
X148807603Y-83996697D01*
X148803111Y-83993785D01*
X148726912Y-83970997D01*
X148670232Y-83954045D01*
X148670229Y-83954045D01*
X148665098Y-83952510D01*
X148659743Y-83952477D01*
X148659741Y-83952477D01*
X148594524Y-83952079D01*
X148521047Y-83951630D01*
X148515897Y-83953102D01*
X148515896Y-83953102D01*
X148510819Y-83954553D01*
X148382539Y-83991215D01*
X148378013Y-83994071D01*
X148378010Y-83994072D01*
X148300043Y-84043266D01*
X148260709Y-84068084D01*
X148253550Y-84076190D01*
X148168897Y-84172041D01*
X148168895Y-84172044D01*
X148165351Y-84176057D01*
X148104129Y-84306454D01*
X148081967Y-84448793D01*
X148082661Y-84454100D01*
X148082661Y-84454103D01*
X148083159Y-84457909D01*
X148100645Y-84591630D01*
X148158662Y-84723484D01*
X148162107Y-84727582D01*
X148162108Y-84727584D01*
X148175138Y-84743085D01*
X148251354Y-84833755D01*
X148371270Y-84913577D01*
X148508769Y-84956535D01*
X148582871Y-84957893D01*
X148647436Y-84959077D01*
X148647438Y-84959077D01*
X148652798Y-84959175D01*
X148660024Y-84957205D01*
X148660593Y-84957050D01*
X148662463Y-84957205D01*
X148663284Y-84957103D01*
X148663305Y-84957275D01*
X148711856Y-84961308D01*
X148733549Y-84976427D01*
X151423715Y-87666593D01*
X151433067Y-87677988D01*
X151443862Y-87694144D01*
X151466174Y-87709052D01*
X151532247Y-87753200D01*
X151539507Y-87754644D01*
X151539509Y-87754645D01*
X151629239Y-87772494D01*
X151636503Y-87773939D01*
X151643767Y-87772494D01*
X151655561Y-87770148D01*
X151670232Y-87768703D01*
X178269731Y-87768703D01*
X178318069Y-87786296D01*
X178343789Y-87830845D01*
X178334856Y-87881503D01*
X178290963Y-87916043D01*
X178122489Y-87965628D01*
X177948192Y-88056748D01*
X177794912Y-88179988D01*
X177668489Y-88330653D01*
X177573739Y-88503004D01*
X177514269Y-88690476D01*
X177492345Y-88885930D01*
X177492653Y-88889598D01*
X177492653Y-88889601D01*
X177495889Y-88928138D01*
X177508803Y-89081919D01*
X177563015Y-89270979D01*
X177601813Y-89346473D01*
X177608260Y-89397505D01*
X177588103Y-89434019D01*
X177141348Y-89880774D01*
X177094728Y-89902514D01*
X177088174Y-89902800D01*
X149366826Y-89902800D01*
X149318488Y-89885207D01*
X149313652Y-89880774D01*
X144028396Y-84595518D01*
X144006656Y-84548898D01*
X144007412Y-84529868D01*
X144017436Y-84470283D01*
X144017919Y-84467413D01*
X144018071Y-84455000D01*
X144017659Y-84452120D01*
X143998409Y-84317704D01*
X143998408Y-84317700D01*
X143997649Y-84312401D01*
X143938026Y-84181266D01*
X143933538Y-84176057D01*
X143847487Y-84076190D01*
X143847484Y-84076187D01*
X143843993Y-84072136D01*
X143839502Y-84069225D01*
X143727604Y-83996697D01*
X143727603Y-83996697D01*
X143723111Y-83993785D01*
X143646912Y-83970997D01*
X143590232Y-83954045D01*
X143590229Y-83954045D01*
X143585098Y-83952510D01*
X143579743Y-83952477D01*
X143579741Y-83952477D01*
X143514524Y-83952079D01*
X143441047Y-83951630D01*
X143435897Y-83953102D01*
X143435896Y-83953102D01*
X143430819Y-83954553D01*
X143302539Y-83991215D01*
X143298013Y-83994071D01*
X143298010Y-83994072D01*
X143220043Y-84043266D01*
X143180709Y-84068084D01*
X143173550Y-84076190D01*
X143088897Y-84172041D01*
X143088895Y-84172044D01*
X143085351Y-84176057D01*
X143024129Y-84306454D01*
X143001967Y-84448793D01*
X143002661Y-84454100D01*
X143002661Y-84454103D01*
X143003159Y-84457909D01*
X143020645Y-84591630D01*
X143078662Y-84723484D01*
X143082107Y-84727582D01*
X143082108Y-84727584D01*
X143095138Y-84743085D01*
X143171354Y-84833755D01*
X143291270Y-84913577D01*
X143428769Y-84956535D01*
X143502871Y-84957893D01*
X143567436Y-84959077D01*
X143567438Y-84959077D01*
X143572798Y-84959175D01*
X143580024Y-84957205D01*
X143580593Y-84957050D01*
X143582463Y-84957205D01*
X143583284Y-84957103D01*
X143583305Y-84957275D01*
X143631856Y-84961308D01*
X143653549Y-84976427D01*
X149012212Y-90335090D01*
X149021562Y-90346482D01*
X149032359Y-90362641D01*
X149038516Y-90366755D01*
X149054671Y-90377549D01*
X149088381Y-90400073D01*
X149118798Y-90441556D01*
X149115435Y-90492886D01*
X149079864Y-90530044D01*
X149046603Y-90537800D01*
X144921825Y-90537800D01*
X144873487Y-90520207D01*
X144868651Y-90515774D01*
X138948396Y-84595518D01*
X138926656Y-84548898D01*
X138927412Y-84529868D01*
X138937436Y-84470283D01*
X138937919Y-84467413D01*
X138938071Y-84455000D01*
X138937659Y-84452120D01*
X138918409Y-84317704D01*
X138918408Y-84317700D01*
X138917649Y-84312401D01*
X138858026Y-84181266D01*
X138853538Y-84176057D01*
X138767487Y-84076190D01*
X138767484Y-84076187D01*
X138763993Y-84072136D01*
X138759502Y-84069225D01*
X138647604Y-83996697D01*
X138647603Y-83996697D01*
X138643111Y-83993785D01*
X138566912Y-83970997D01*
X138510232Y-83954045D01*
X138510229Y-83954045D01*
X138505098Y-83952510D01*
X138499743Y-83952477D01*
X138499741Y-83952477D01*
X138434524Y-83952079D01*
X138361047Y-83951630D01*
X138355897Y-83953102D01*
X138355896Y-83953102D01*
X138350819Y-83954553D01*
X138222539Y-83991215D01*
X138218013Y-83994071D01*
X138218010Y-83994072D01*
X138140043Y-84043266D01*
X138100709Y-84068084D01*
X138093550Y-84076190D01*
X138008897Y-84172041D01*
X138008895Y-84172044D01*
X138005351Y-84176057D01*
X137944129Y-84306454D01*
X137921967Y-84448793D01*
X137922661Y-84454100D01*
X137922661Y-84454103D01*
X137923159Y-84457909D01*
X137940645Y-84591630D01*
X137998662Y-84723484D01*
X138002107Y-84727582D01*
X138002108Y-84727584D01*
X138015138Y-84743085D01*
X138091354Y-84833755D01*
X138211270Y-84913577D01*
X138348769Y-84956535D01*
X138422871Y-84957893D01*
X138487436Y-84959077D01*
X138487438Y-84959077D01*
X138492798Y-84959175D01*
X138500024Y-84957205D01*
X138500593Y-84957050D01*
X138502463Y-84957205D01*
X138503284Y-84957103D01*
X138503305Y-84957275D01*
X138551856Y-84961308D01*
X138573549Y-84976427D01*
X144567210Y-90970087D01*
X144576562Y-90981482D01*
X144587359Y-90997641D01*
X144651557Y-91040536D01*
X144675743Y-91056697D01*
X144780000Y-91077435D01*
X144787264Y-91075990D01*
X144787265Y-91075990D01*
X144799054Y-91073645D01*
X144813725Y-91072200D01*
X179101271Y-91072200D01*
X179115942Y-91073645D01*
X179135000Y-91077436D01*
X179142264Y-91075991D01*
X179231993Y-91058142D01*
X179239257Y-91056697D01*
X179305329Y-91012549D01*
X179327641Y-90997641D01*
X179338437Y-90981483D01*
X179347788Y-90970090D01*
X180505153Y-89812725D01*
X180551773Y-89790985D01*
X180595014Y-89800255D01*
X180636547Y-89823467D01*
X180640044Y-89824603D01*
X180640048Y-89824605D01*
X180732615Y-89854681D01*
X180823600Y-89884244D01*
X180930984Y-89897049D01*
X181015237Y-89907096D01*
X181015239Y-89907096D01*
X181018895Y-89907532D01*
X181214994Y-89892443D01*
X181329061Y-89860595D01*
X181400883Y-89840542D01*
X181400885Y-89840541D01*
X181404428Y-89839552D01*
X181579981Y-89750874D01*
X181734966Y-89629786D01*
X181863480Y-89480901D01*
X181951515Y-89325933D01*
X181990688Y-89292594D01*
X182042126Y-89292235D01*
X182081761Y-89325024D01*
X182092100Y-89363078D01*
X182092100Y-93116900D01*
X182074507Y-93165238D01*
X182029958Y-93190958D01*
X182016900Y-93192100D01*
X134650032Y-93192100D01*
X134630569Y-93189538D01*
X134620000Y-93186706D01*
X134610438Y-93189268D01*
X134600539Y-93189268D01*
X134600539Y-93188836D01*
X134591619Y-93189617D01*
X134515995Y-93183001D01*
X134432573Y-93175702D01*
X134419664Y-93173426D01*
X134244281Y-93126433D01*
X134231963Y-93121949D01*
X134151126Y-93084254D01*
X134067409Y-93045216D01*
X134056064Y-93038666D01*
X133907329Y-92934520D01*
X133897288Y-92926094D01*
X133768906Y-92797712D01*
X133760480Y-92787671D01*
X133656336Y-92638939D01*
X133649782Y-92627587D01*
X133573051Y-92463037D01*
X133568567Y-92450719D01*
X133521574Y-92275336D01*
X133519298Y-92262427D01*
X133505383Y-92103383D01*
X133506164Y-92094461D01*
X133505732Y-92094461D01*
X133505732Y-92084562D01*
X133508294Y-92075000D01*
X133505462Y-92064430D01*
X133502900Y-92044968D01*
X133502900Y-78900318D01*
X177507492Y-78900318D01*
X177508990Y-78918160D01*
X177510312Y-78925364D01*
X177562470Y-79107261D01*
X177565164Y-79114063D01*
X177651657Y-79282363D01*
X177655623Y-79288518D01*
X177773164Y-79436817D01*
X177778240Y-79442074D01*
X177922355Y-79564725D01*
X177928353Y-79568894D01*
X178093537Y-79661211D01*
X178100250Y-79664144D01*
X178280210Y-79722616D01*
X178287358Y-79724188D01*
X178334434Y-79729802D01*
X178344957Y-79727334D01*
X178347600Y-79723801D01*
X178347600Y-79720421D01*
X178652400Y-79720421D01*
X178656097Y-79730578D01*
X178660403Y-79733064D01*
X178671238Y-79732230D01*
X178678449Y-79730959D01*
X178860701Y-79680073D01*
X178867534Y-79677422D01*
X179036428Y-79592108D01*
X179042611Y-79588184D01*
X179191720Y-79471687D01*
X179197023Y-79466637D01*
X179320664Y-79323397D01*
X179324886Y-79317412D01*
X179418354Y-79152880D01*
X179421328Y-79146200D01*
X179481059Y-78966641D01*
X179482680Y-78959508D01*
X179489495Y-78905556D01*
X179488305Y-78900318D01*
X180047492Y-78900318D01*
X180048990Y-78918160D01*
X180050312Y-78925364D01*
X180102470Y-79107261D01*
X180105164Y-79114063D01*
X180191657Y-79282363D01*
X180195623Y-79288518D01*
X180313164Y-79436817D01*
X180318240Y-79442074D01*
X180462355Y-79564725D01*
X180468353Y-79568894D01*
X180633537Y-79661211D01*
X180640250Y-79664144D01*
X180820210Y-79722616D01*
X180827358Y-79724188D01*
X180874434Y-79729802D01*
X180884957Y-79727334D01*
X180887600Y-79723801D01*
X180887600Y-78905659D01*
X180883903Y-78895502D01*
X180878531Y-78892400D01*
X180060086Y-78892400D01*
X180049929Y-78896097D01*
X180047492Y-78900318D01*
X179488305Y-78900318D01*
X179487100Y-78895014D01*
X179483656Y-78892400D01*
X178665659Y-78892400D01*
X178655502Y-78896097D01*
X178652400Y-78901469D01*
X178652400Y-79720421D01*
X178347600Y-79720421D01*
X178347600Y-78905659D01*
X178343903Y-78895502D01*
X178338531Y-78892400D01*
X177520086Y-78892400D01*
X177509929Y-78896097D01*
X177507492Y-78900318D01*
X133502900Y-78900318D01*
X133502900Y-78574421D01*
X177509843Y-78574421D01*
X177512386Y-78584930D01*
X177516007Y-78587600D01*
X178334341Y-78587600D01*
X178344498Y-78583903D01*
X178347600Y-78578531D01*
X178347600Y-78574341D01*
X178652400Y-78574341D01*
X178656097Y-78584498D01*
X178661469Y-78587600D01*
X179479048Y-78587600D01*
X179489205Y-78583903D01*
X179491547Y-78579847D01*
X179491015Y-78574421D01*
X180049843Y-78574421D01*
X180052386Y-78584930D01*
X180056007Y-78587600D01*
X180874341Y-78587600D01*
X180884498Y-78583903D01*
X180887600Y-78578531D01*
X180887600Y-77760543D01*
X180883903Y-77750386D01*
X180879766Y-77747997D01*
X180854918Y-77750258D01*
X180847732Y-77751629D01*
X180666208Y-77805055D01*
X180659421Y-77807797D01*
X180491721Y-77895468D01*
X180485603Y-77899472D01*
X180338128Y-78018044D01*
X180332903Y-78023161D01*
X180211266Y-78168122D01*
X180207132Y-78174160D01*
X180115975Y-78339975D01*
X180113088Y-78346711D01*
X180055874Y-78527074D01*
X180054351Y-78534239D01*
X180049843Y-78574421D01*
X179491015Y-78574421D01*
X179488427Y-78548024D01*
X179487001Y-78540828D01*
X179432312Y-78359688D01*
X179429524Y-78352922D01*
X179340684Y-78185839D01*
X179336639Y-78179751D01*
X179217041Y-78033109D01*
X179211878Y-78027910D01*
X179066078Y-77907294D01*
X179060016Y-77903205D01*
X178893557Y-77813201D01*
X178886813Y-77810366D01*
X178706047Y-77754410D01*
X178698880Y-77752939D01*
X178665587Y-77749440D01*
X178655100Y-77752055D01*
X178652400Y-77755771D01*
X178652400Y-78574341D01*
X178347600Y-78574341D01*
X178347600Y-77760543D01*
X178343903Y-77750386D01*
X178339766Y-77747997D01*
X178314918Y-77750258D01*
X178307732Y-77751629D01*
X178126208Y-77805055D01*
X178119421Y-77807797D01*
X177951721Y-77895468D01*
X177945603Y-77899472D01*
X177798128Y-78018044D01*
X177792903Y-78023161D01*
X177671266Y-78168122D01*
X177667132Y-78174160D01*
X177575975Y-78339975D01*
X177573088Y-78346711D01*
X177515874Y-78527074D01*
X177514351Y-78534239D01*
X177509843Y-78574421D01*
X133502900Y-78574421D01*
X133502900Y-75334943D01*
X177497100Y-75334943D01*
X177497101Y-77065056D01*
X177505972Y-77109658D01*
X177539766Y-77160234D01*
X177545923Y-77164348D01*
X177584183Y-77189913D01*
X177584184Y-77189914D01*
X177590342Y-77194028D01*
X177634943Y-77202900D01*
X178499882Y-77202900D01*
X179365056Y-77202899D01*
X179409658Y-77194028D01*
X179460234Y-77160234D01*
X179484801Y-77123467D01*
X179489913Y-77115817D01*
X179489914Y-77115816D01*
X179494028Y-77109658D01*
X179502900Y-77065057D01*
X179502899Y-75334944D01*
X179494028Y-75290342D01*
X179460234Y-75239766D01*
X179454077Y-75235652D01*
X179415817Y-75210087D01*
X179415816Y-75210086D01*
X179409658Y-75205972D01*
X179365057Y-75197100D01*
X178500118Y-75197100D01*
X177634944Y-75197101D01*
X177590342Y-75205972D01*
X177539766Y-75239766D01*
X177535652Y-75245923D01*
X177517735Y-75272738D01*
X177505972Y-75290342D01*
X177497100Y-75334943D01*
X133502900Y-75334943D01*
X133502900Y-73690032D01*
X133505462Y-73670569D01*
X133505732Y-73669561D01*
X133508294Y-73660000D01*
X133505732Y-73650438D01*
X133505732Y-73640539D01*
X133506164Y-73640539D01*
X133505383Y-73631617D01*
X133519298Y-73472573D01*
X133521574Y-73459664D01*
X133568567Y-73284281D01*
X133573051Y-73271963D01*
X133649782Y-73107413D01*
X133656336Y-73096061D01*
X133760480Y-72947329D01*
X133768906Y-72937288D01*
X133897288Y-72808906D01*
X133907329Y-72800480D01*
X133916455Y-72794090D01*
X134056064Y-72696334D01*
X134067409Y-72689784D01*
X134231963Y-72613051D01*
X134244281Y-72608567D01*
X134419664Y-72561574D01*
X134432573Y-72559298D01*
X134515995Y-72551999D01*
X134591619Y-72545383D01*
X134600539Y-72546164D01*
X134600539Y-72545732D01*
X134610438Y-72545732D01*
X134620000Y-72548294D01*
X134630570Y-72545462D01*
X134650032Y-72542900D01*
X182016900Y-72542900D01*
X182065238Y-72560493D01*
G37*
G04 #@! TD.AperFunction*
G04 #@! TD*
M02*
