G04 #@! TF.GenerationSoftware,KiCad,Pcbnew,6.0.9+dfsg-1*
G04 #@! TF.CreationDate,2022-11-16T11:41:45+08:00*
G04 #@! TF.ProjectId,io,696f2e6b-6963-4616-945f-706362585858,a*
G04 #@! TF.SameCoordinates,Original*
G04 #@! TF.FileFunction,Legend,Bot*
G04 #@! TF.FilePolarity,Positive*
%FSLAX46Y46*%
G04 Gerber Fmt 4.6, Leading zero omitted, Abs format (unit mm)*
G04 Created by KiCad (PCBNEW 6.0.9+dfsg-1) date 2022-11-16 11:41:45*
%MOMM*%
%LPD*%
G01*
G04 APERTURE LIST*
%ADD10C,0.150000*%
G04 APERTURE END LIST*
D10*
X179823452Y-91636904D02*
X179823452Y-92208333D01*
X179861547Y-92322619D01*
X179937738Y-92398809D01*
X180052023Y-92436904D01*
X180128214Y-92436904D01*
X179061547Y-92436904D02*
X179442500Y-92436904D01*
X179442500Y-91636904D01*
X178337738Y-92360714D02*
X178375833Y-92398809D01*
X178490119Y-92436904D01*
X178566309Y-92436904D01*
X178680595Y-92398809D01*
X178756785Y-92322619D01*
X178794880Y-92246428D01*
X178832976Y-92094047D01*
X178832976Y-91979761D01*
X178794880Y-91827380D01*
X178756785Y-91751190D01*
X178680595Y-91675000D01*
X178566309Y-91636904D01*
X178490119Y-91636904D01*
X178375833Y-91675000D01*
X178337738Y-91713095D01*
X177766309Y-91636904D02*
X177766309Y-92208333D01*
X177804404Y-92322619D01*
X177880595Y-92398809D01*
X177994880Y-92436904D01*
X178071071Y-92436904D01*
X177004404Y-92436904D02*
X177385357Y-92436904D01*
X177385357Y-91636904D01*
X176280595Y-92360714D02*
X176318690Y-92398809D01*
X176432976Y-92436904D01*
X176509166Y-92436904D01*
X176623452Y-92398809D01*
X176699642Y-92322619D01*
X176737738Y-92246428D01*
X176775833Y-92094047D01*
X176775833Y-91979761D01*
X176737738Y-91827380D01*
X176699642Y-91751190D01*
X176623452Y-91675000D01*
X176509166Y-91636904D01*
X176432976Y-91636904D01*
X176318690Y-91675000D01*
X176280595Y-91713095D01*
X175709166Y-91636904D02*
X175709166Y-92208333D01*
X175747261Y-92322619D01*
X175823452Y-92398809D01*
X175937738Y-92436904D01*
X176013928Y-92436904D01*
X174947261Y-92436904D02*
X175328214Y-92436904D01*
X175328214Y-91636904D01*
X174223452Y-92360714D02*
X174261547Y-92398809D01*
X174375833Y-92436904D01*
X174452023Y-92436904D01*
X174566309Y-92398809D01*
X174642500Y-92322619D01*
X174680595Y-92246428D01*
X174718690Y-92094047D01*
X174718690Y-91979761D01*
X174680595Y-91827380D01*
X174642500Y-91751190D01*
X174566309Y-91675000D01*
X174452023Y-91636904D01*
X174375833Y-91636904D01*
X174261547Y-91675000D01*
X174223452Y-91713095D01*
X173652023Y-91636904D02*
X173652023Y-92208333D01*
X173690119Y-92322619D01*
X173766309Y-92398809D01*
X173880595Y-92436904D01*
X173956785Y-92436904D01*
X172890119Y-92436904D02*
X173271071Y-92436904D01*
X173271071Y-91636904D01*
X172166309Y-92360714D02*
X172204404Y-92398809D01*
X172318690Y-92436904D01*
X172394880Y-92436904D01*
X172509166Y-92398809D01*
X172585357Y-92322619D01*
X172623452Y-92246428D01*
X172661547Y-92094047D01*
X172661547Y-91979761D01*
X172623452Y-91827380D01*
X172585357Y-91751190D01*
X172509166Y-91675000D01*
X172394880Y-91636904D01*
X172318690Y-91636904D01*
X172204404Y-91675000D01*
X172166309Y-91713095D01*
X174924404Y-81392380D02*
X174924404Y-80392380D01*
X174257738Y-80392380D02*
X174067261Y-80392380D01*
X173972023Y-80440000D01*
X173876785Y-80535238D01*
X173829166Y-80725714D01*
X173829166Y-81059047D01*
X173876785Y-81249523D01*
X173972023Y-81344761D01*
X174067261Y-81392380D01*
X174257738Y-81392380D01*
X174352976Y-81344761D01*
X174448214Y-81249523D01*
X174495833Y-81059047D01*
X174495833Y-80725714D01*
X174448214Y-80535238D01*
X174352976Y-80440000D01*
X174257738Y-80392380D01*
X172305357Y-80868571D02*
X172162500Y-80916190D01*
X172114880Y-80963809D01*
X172067261Y-81059047D01*
X172067261Y-81201904D01*
X172114880Y-81297142D01*
X172162500Y-81344761D01*
X172257738Y-81392380D01*
X172638690Y-81392380D01*
X172638690Y-80392380D01*
X172305357Y-80392380D01*
X172210119Y-80440000D01*
X172162500Y-80487619D01*
X172114880Y-80582857D01*
X172114880Y-80678095D01*
X172162500Y-80773333D01*
X172210119Y-80820952D01*
X172305357Y-80868571D01*
X172638690Y-80868571D01*
X171210119Y-80725714D02*
X171210119Y-81392380D01*
X171638690Y-80725714D02*
X171638690Y-81249523D01*
X171591071Y-81344761D01*
X171495833Y-81392380D01*
X171352976Y-81392380D01*
X171257738Y-81344761D01*
X171210119Y-81297142D01*
X170876785Y-80725714D02*
X170495833Y-80725714D01*
X170733928Y-80392380D02*
X170733928Y-81249523D01*
X170686309Y-81344761D01*
X170591071Y-81392380D01*
X170495833Y-81392380D01*
X170305357Y-80725714D02*
X169924404Y-80725714D01*
X170162500Y-80392380D02*
X170162500Y-81249523D01*
X170114880Y-81344761D01*
X170019642Y-81392380D01*
X169924404Y-81392380D01*
X169448214Y-81392380D02*
X169543452Y-81344761D01*
X169591071Y-81297142D01*
X169638690Y-81201904D01*
X169638690Y-80916190D01*
X169591071Y-80820952D01*
X169543452Y-80773333D01*
X169448214Y-80725714D01*
X169305357Y-80725714D01*
X169210119Y-80773333D01*
X169162500Y-80820952D01*
X169114880Y-80916190D01*
X169114880Y-81201904D01*
X169162500Y-81297142D01*
X169210119Y-81344761D01*
X169305357Y-81392380D01*
X169448214Y-81392380D01*
X168686309Y-80725714D02*
X168686309Y-81392380D01*
X168686309Y-80820952D02*
X168638690Y-80773333D01*
X168543452Y-80725714D01*
X168400595Y-80725714D01*
X168305357Y-80773333D01*
X168257738Y-80868571D01*
X168257738Y-81392380D01*
X166591071Y-81392380D02*
X166591071Y-80868571D01*
X166638690Y-80773333D01*
X166733928Y-80725714D01*
X166924404Y-80725714D01*
X167019642Y-80773333D01*
X166591071Y-81344761D02*
X166686309Y-81392380D01*
X166924404Y-81392380D01*
X167019642Y-81344761D01*
X167067261Y-81249523D01*
X167067261Y-81154285D01*
X167019642Y-81059047D01*
X166924404Y-81011428D01*
X166686309Y-81011428D01*
X166591071Y-80963809D01*
X166114880Y-80725714D02*
X166114880Y-81392380D01*
X166114880Y-80820952D02*
X166067261Y-80773333D01*
X165972023Y-80725714D01*
X165829166Y-80725714D01*
X165733928Y-80773333D01*
X165686309Y-80868571D01*
X165686309Y-81392380D01*
X164781547Y-81392380D02*
X164781547Y-80392380D01*
X164781547Y-81344761D02*
X164876785Y-81392380D01*
X165067261Y-81392380D01*
X165162500Y-81344761D01*
X165210119Y-81297142D01*
X165257738Y-81201904D01*
X165257738Y-80916190D01*
X165210119Y-80820952D01*
X165162500Y-80773333D01*
X165067261Y-80725714D01*
X164876785Y-80725714D01*
X164781547Y-80773333D01*
X163067261Y-81392380D02*
X163543452Y-81392380D01*
X163543452Y-80392380D01*
X162352976Y-81344761D02*
X162448214Y-81392380D01*
X162638690Y-81392380D01*
X162733928Y-81344761D01*
X162781547Y-81249523D01*
X162781547Y-80868571D01*
X162733928Y-80773333D01*
X162638690Y-80725714D01*
X162448214Y-80725714D01*
X162352976Y-80773333D01*
X162305357Y-80868571D01*
X162305357Y-80963809D01*
X162781547Y-81059047D01*
X161448214Y-81392380D02*
X161448214Y-80392380D01*
X161448214Y-81344761D02*
X161543452Y-81392380D01*
X161733928Y-81392380D01*
X161829166Y-81344761D01*
X161876785Y-81297142D01*
X161924404Y-81201904D01*
X161924404Y-80916190D01*
X161876785Y-80820952D01*
X161829166Y-80773333D01*
X161733928Y-80725714D01*
X161543452Y-80725714D01*
X161448214Y-80773333D01*
X174924404Y-83002380D02*
X174924404Y-82335714D01*
X174924404Y-82526190D02*
X174876785Y-82430952D01*
X174829166Y-82383333D01*
X174733928Y-82335714D01*
X174638690Y-82335714D01*
X173924404Y-82954761D02*
X174019642Y-83002380D01*
X174210119Y-83002380D01*
X174305357Y-82954761D01*
X174352976Y-82859523D01*
X174352976Y-82478571D01*
X174305357Y-82383333D01*
X174210119Y-82335714D01*
X174019642Y-82335714D01*
X173924404Y-82383333D01*
X173876785Y-82478571D01*
X173876785Y-82573809D01*
X174352976Y-82669047D01*
X173543452Y-82335714D02*
X173305357Y-83002380D01*
X173067261Y-82335714D01*
X172686309Y-82907142D02*
X172638690Y-82954761D01*
X172686309Y-83002380D01*
X172733928Y-82954761D01*
X172686309Y-82907142D01*
X172686309Y-83002380D01*
X171019642Y-83002380D02*
X171019642Y-82478571D01*
X171067261Y-82383333D01*
X171162500Y-82335714D01*
X171352976Y-82335714D01*
X171448214Y-82383333D01*
X171019642Y-82954761D02*
X171114880Y-83002380D01*
X171352976Y-83002380D01*
X171448214Y-82954761D01*
X171495833Y-82859523D01*
X171495833Y-82764285D01*
X171448214Y-82669047D01*
X171352976Y-82621428D01*
X171114880Y-82621428D01*
X171019642Y-82573809D01*
X174638690Y-84993333D02*
X174686309Y-84945714D01*
X174781547Y-84802857D01*
X174829166Y-84707619D01*
X174876785Y-84564761D01*
X174924404Y-84326666D01*
X174924404Y-84136190D01*
X174876785Y-83898095D01*
X174829166Y-83755238D01*
X174781547Y-83660000D01*
X174686309Y-83517142D01*
X174638690Y-83469523D01*
X173686309Y-84517142D02*
X173733928Y-84564761D01*
X173876785Y-84612380D01*
X173972023Y-84612380D01*
X174114880Y-84564761D01*
X174210119Y-84469523D01*
X174257738Y-84374285D01*
X174305357Y-84183809D01*
X174305357Y-84040952D01*
X174257738Y-83850476D01*
X174210119Y-83755238D01*
X174114880Y-83660000D01*
X173972023Y-83612380D01*
X173876785Y-83612380D01*
X173733928Y-83660000D01*
X173686309Y-83707619D01*
X173352976Y-84993333D02*
X173305357Y-84945714D01*
X173210119Y-84802857D01*
X173162500Y-84707619D01*
X173114880Y-84564761D01*
X173067261Y-84326666D01*
X173067261Y-84136190D01*
X173114880Y-83898095D01*
X173162500Y-83755238D01*
X173210119Y-83660000D01*
X173305357Y-83517142D01*
X173352976Y-83469523D01*
X171876785Y-83707619D02*
X171829166Y-83660000D01*
X171733928Y-83612380D01*
X171495833Y-83612380D01*
X171400595Y-83660000D01*
X171352976Y-83707619D01*
X171305357Y-83802857D01*
X171305357Y-83898095D01*
X171352976Y-84040952D01*
X171924404Y-84612380D01*
X171305357Y-84612380D01*
X170686309Y-83612380D02*
X170591071Y-83612380D01*
X170495833Y-83660000D01*
X170448214Y-83707619D01*
X170400595Y-83802857D01*
X170352976Y-83993333D01*
X170352976Y-84231428D01*
X170400595Y-84421904D01*
X170448214Y-84517142D01*
X170495833Y-84564761D01*
X170591071Y-84612380D01*
X170686309Y-84612380D01*
X170781547Y-84564761D01*
X170829166Y-84517142D01*
X170876785Y-84421904D01*
X170924404Y-84231428D01*
X170924404Y-83993333D01*
X170876785Y-83802857D01*
X170829166Y-83707619D01*
X170781547Y-83660000D01*
X170686309Y-83612380D01*
X169972023Y-83707619D02*
X169924404Y-83660000D01*
X169829166Y-83612380D01*
X169591071Y-83612380D01*
X169495833Y-83660000D01*
X169448214Y-83707619D01*
X169400595Y-83802857D01*
X169400595Y-83898095D01*
X169448214Y-84040952D01*
X170019642Y-84612380D01*
X169400595Y-84612380D01*
X169019642Y-83707619D02*
X168972023Y-83660000D01*
X168876785Y-83612380D01*
X168638690Y-83612380D01*
X168543452Y-83660000D01*
X168495833Y-83707619D01*
X168448214Y-83802857D01*
X168448214Y-83898095D01*
X168495833Y-84040952D01*
X169067261Y-84612380D01*
X168448214Y-84612380D01*
X166781547Y-84612380D02*
X167257738Y-84612380D01*
X167257738Y-83612380D01*
X166019642Y-84612380D02*
X166019642Y-84088571D01*
X166067261Y-83993333D01*
X166162500Y-83945714D01*
X166352976Y-83945714D01*
X166448214Y-83993333D01*
X166019642Y-84564761D02*
X166114880Y-84612380D01*
X166352976Y-84612380D01*
X166448214Y-84564761D01*
X166495833Y-84469523D01*
X166495833Y-84374285D01*
X166448214Y-84279047D01*
X166352976Y-84231428D01*
X166114880Y-84231428D01*
X166019642Y-84183809D01*
X165543452Y-84612380D02*
X165543452Y-83945714D01*
X165543452Y-84136190D02*
X165495833Y-84040952D01*
X165448214Y-83993333D01*
X165352976Y-83945714D01*
X165257738Y-83945714D01*
X164972023Y-84564761D02*
X164876785Y-84612380D01*
X164686309Y-84612380D01*
X164591071Y-84564761D01*
X164543452Y-84469523D01*
X164543452Y-84421904D01*
X164591071Y-84326666D01*
X164686309Y-84279047D01*
X164829166Y-84279047D01*
X164924404Y-84231428D01*
X164972023Y-84136190D01*
X164972023Y-84088571D01*
X164924404Y-83993333D01*
X164829166Y-83945714D01*
X164686309Y-83945714D01*
X164591071Y-83993333D01*
X163019642Y-84088571D02*
X162876785Y-84136190D01*
X162829166Y-84183809D01*
X162781547Y-84279047D01*
X162781547Y-84421904D01*
X162829166Y-84517142D01*
X162876785Y-84564761D01*
X162972023Y-84612380D01*
X163352976Y-84612380D01*
X163352976Y-83612380D01*
X163019642Y-83612380D01*
X162924404Y-83660000D01*
X162876785Y-83707619D01*
X162829166Y-83802857D01*
X162829166Y-83898095D01*
X162876785Y-83993333D01*
X162924404Y-84040952D01*
X163019642Y-84088571D01*
X163352976Y-84088571D01*
X162210119Y-84612380D02*
X162305357Y-84564761D01*
X162352976Y-84517142D01*
X162400595Y-84421904D01*
X162400595Y-84136190D01*
X162352976Y-84040952D01*
X162305357Y-83993333D01*
X162210119Y-83945714D01*
X162067261Y-83945714D01*
X161972023Y-83993333D01*
X161924404Y-84040952D01*
X161876785Y-84136190D01*
X161876785Y-84421904D01*
X161924404Y-84517142D01*
X161972023Y-84564761D01*
X162067261Y-84612380D01*
X162210119Y-84612380D01*
X161067261Y-84564761D02*
X161162500Y-84612380D01*
X161352976Y-84612380D01*
X161448214Y-84564761D01*
X161495833Y-84469523D01*
X161495833Y-84088571D01*
X161448214Y-83993333D01*
X161352976Y-83945714D01*
X161162500Y-83945714D01*
X161067261Y-83993333D01*
X161019642Y-84088571D01*
X161019642Y-84183809D01*
X161495833Y-84279047D01*
X160162500Y-83945714D02*
X160162500Y-84755238D01*
X160210119Y-84850476D01*
X160257738Y-84898095D01*
X160352976Y-84945714D01*
X160495833Y-84945714D01*
X160591071Y-84898095D01*
X160162500Y-84564761D02*
X160257738Y-84612380D01*
X160448214Y-84612380D01*
X160543452Y-84564761D01*
X160591071Y-84517142D01*
X160638690Y-84421904D01*
X160638690Y-84136190D01*
X160591071Y-84040952D01*
X160543452Y-83993333D01*
X160448214Y-83945714D01*
X160257738Y-83945714D01*
X160162500Y-83993333D01*
X159686309Y-84612380D02*
X159686309Y-83945714D01*
X159686309Y-83612380D02*
X159733928Y-83660000D01*
X159686309Y-83707619D01*
X159638690Y-83660000D01*
X159686309Y-83612380D01*
X159686309Y-83707619D01*
X159067261Y-84612380D02*
X159162500Y-84564761D01*
X159210119Y-84469523D01*
X159210119Y-83612380D01*
X158257738Y-84612380D02*
X158257738Y-83612380D01*
X158257738Y-84564761D02*
X158352976Y-84612380D01*
X158543452Y-84612380D01*
X158638690Y-84564761D01*
X158686309Y-84517142D01*
X158733928Y-84421904D01*
X158733928Y-84136190D01*
X158686309Y-84040952D01*
X158638690Y-83993333D01*
X158543452Y-83945714D01*
X158352976Y-83945714D01*
X158257738Y-83993333D01*
X157162500Y-83612380D02*
X156591071Y-83612380D01*
X156876785Y-84612380D02*
X156876785Y-83612380D01*
X156257738Y-84612380D02*
X156257738Y-83612380D01*
X155829166Y-84612380D02*
X155829166Y-84088571D01*
X155876785Y-83993333D01*
X155972023Y-83945714D01*
X156114880Y-83945714D01*
X156210119Y-83993333D01*
X156257738Y-84040952D01*
X155210119Y-84612380D02*
X155305357Y-84564761D01*
X155352976Y-84517142D01*
X155400595Y-84421904D01*
X155400595Y-84136190D01*
X155352976Y-84040952D01*
X155305357Y-83993333D01*
X155210119Y-83945714D01*
X155067261Y-83945714D01*
X154972023Y-83993333D01*
X154924404Y-84040952D01*
X154876785Y-84136190D01*
X154876785Y-84421904D01*
X154924404Y-84517142D01*
X154972023Y-84564761D01*
X155067261Y-84612380D01*
X155210119Y-84612380D01*
X154448214Y-84612380D02*
X154448214Y-83945714D01*
X154448214Y-84040952D02*
X154400595Y-83993333D01*
X154305357Y-83945714D01*
X154162500Y-83945714D01*
X154067261Y-83993333D01*
X154019642Y-84088571D01*
X154019642Y-84612380D01*
X154019642Y-84088571D02*
X153972023Y-83993333D01*
X153876785Y-83945714D01*
X153733928Y-83945714D01*
X153638690Y-83993333D01*
X153591071Y-84088571D01*
X153591071Y-84612380D01*
X153162500Y-84564761D02*
X153067261Y-84612380D01*
X152876785Y-84612380D01*
X152781547Y-84564761D01*
X152733928Y-84469523D01*
X152733928Y-84421904D01*
X152781547Y-84326666D01*
X152876785Y-84279047D01*
X153019642Y-84279047D01*
X153114880Y-84231428D01*
X153162500Y-84136190D01*
X153162500Y-84088571D01*
X153114880Y-83993333D01*
X153019642Y-83945714D01*
X152876785Y-83945714D01*
X152781547Y-83993333D01*
X151924404Y-84564761D02*
X152019642Y-84612380D01*
X152210119Y-84612380D01*
X152305357Y-84564761D01*
X152352976Y-84469523D01*
X152352976Y-84088571D01*
X152305357Y-83993333D01*
X152210119Y-83945714D01*
X152019642Y-83945714D01*
X151924404Y-83993333D01*
X151876785Y-84088571D01*
X151876785Y-84183809D01*
X152352976Y-84279047D01*
X151448214Y-83945714D02*
X151448214Y-84612380D01*
X151448214Y-84040952D02*
X151400595Y-83993333D01*
X151305357Y-83945714D01*
X151162500Y-83945714D01*
X151067261Y-83993333D01*
X151019642Y-84088571D01*
X151019642Y-84612380D01*
M02*
