G04 #@! TF.GenerationSoftware,KiCad,Pcbnew,6.0.9+dfsg-1*
G04 #@! TF.CreationDate,2022-11-16T11:41:45+08:00*
G04 #@! TF.ProjectId,io,696f2e6b-6963-4616-945f-706362585858,a*
G04 #@! TF.SameCoordinates,Original*
G04 #@! TF.FileFunction,Paste,Top*
G04 #@! TF.FilePolarity,Positive*
%FSLAX46Y46*%
G04 Gerber Fmt 4.6, Leading zero omitted, Abs format (unit mm)*
G04 Created by KiCad (PCBNEW 6.0.9+dfsg-1) date 2022-11-16 11:41:45*
%MOMM*%
%LPD*%
G01*
G04 APERTURE LIST*
G04 Aperture macros list*
%AMRoundRect*
0 Rectangle with rounded corners*
0 $1 Rounding radius*
0 $2 $3 $4 $5 $6 $7 $8 $9 X,Y pos of 4 corners*
0 Add a 4 corners polygon primitive as box body*
4,1,4,$2,$3,$4,$5,$6,$7,$8,$9,$2,$3,0*
0 Add four circle primitives for the rounded corners*
1,1,$1+$1,$2,$3*
1,1,$1+$1,$4,$5*
1,1,$1+$1,$6,$7*
1,1,$1+$1,$8,$9*
0 Add four rect primitives between the rounded corners*
20,1,$1+$1,$2,$3,$4,$5,0*
20,1,$1+$1,$4,$5,$6,$7,0*
20,1,$1+$1,$6,$7,$8,$9,0*
20,1,$1+$1,$8,$9,$2,$3,0*%
G04 Aperture macros list end*
%ADD10RoundRect,0.200000X-0.200000X-0.275000X0.200000X-0.275000X0.200000X0.275000X-0.200000X0.275000X0*%
%ADD11RoundRect,0.150000X-0.587500X-0.150000X0.587500X-0.150000X0.587500X0.150000X-0.587500X0.150000X0*%
%ADD12RoundRect,0.218750X-0.218750X-0.256250X0.218750X-0.256250X0.218750X0.256250X-0.218750X0.256250X0*%
%ADD13RoundRect,0.225000X-0.225000X-0.250000X0.225000X-0.250000X0.225000X0.250000X-0.225000X0.250000X0*%
%ADD14R,2.000000X1.200000*%
G04 APERTURE END LIST*
D10*
G04 #@! TO.C,R3*
X135700000Y-89535000D03*
X137350000Y-89535000D03*
G04 #@! TD*
D11*
G04 #@! TO.C,Q6*
X160987500Y-86045000D03*
X160987500Y-87945000D03*
X162862500Y-86995000D03*
G04 #@! TD*
D12*
G04 #@! TO.C,D1*
X135737500Y-91440000D03*
X137312500Y-91440000D03*
G04 #@! TD*
D13*
G04 #@! TO.C,C4*
X150990000Y-82550000D03*
X152540000Y-82550000D03*
G04 #@! TD*
D11*
G04 #@! TO.C,Q2*
X140667500Y-86045000D03*
X140667500Y-87945000D03*
X142542500Y-86995000D03*
G04 #@! TD*
D14*
G04 #@! TO.C,SW3*
X146635000Y-78400000D03*
X146685000Y-74000000D03*
G04 #@! TD*
D13*
G04 #@! TO.C,C5*
X156070000Y-82550000D03*
X157620000Y-82550000D03*
G04 #@! TD*
D12*
G04 #@! TO.C,D7*
X166217500Y-91440000D03*
X167792500Y-91440000D03*
G04 #@! TD*
D10*
G04 #@! TO.C,R8*
X145860000Y-80645000D03*
X147510000Y-80645000D03*
G04 #@! TD*
D14*
G04 #@! TO.C,SW2*
X141555000Y-78400000D03*
X141605000Y-74000000D03*
G04 #@! TD*
G04 #@! TO.C,SW4*
X151715000Y-78400000D03*
X151765000Y-74000000D03*
G04 #@! TD*
G04 #@! TO.C,SW6*
X161875000Y-78400000D03*
X161925000Y-74000000D03*
G04 #@! TD*
D12*
G04 #@! TO.C,D8*
X171297500Y-91440000D03*
X172872500Y-91440000D03*
G04 #@! TD*
D10*
G04 #@! TO.C,R24*
X171260000Y-89535000D03*
X172910000Y-89535000D03*
G04 #@! TD*
D13*
G04 #@! TO.C,C3*
X145910000Y-82550000D03*
X147460000Y-82550000D03*
G04 #@! TD*
D12*
G04 #@! TO.C,D4*
X150977500Y-91440000D03*
X152552500Y-91440000D03*
G04 #@! TD*
D14*
G04 #@! TO.C,SW7*
X166955000Y-78400000D03*
X167005000Y-74000000D03*
G04 #@! TD*
D10*
G04 #@! TO.C,R14*
X156020000Y-80645000D03*
X157670000Y-80645000D03*
G04 #@! TD*
D12*
G04 #@! TO.C,D3*
X145897500Y-91440000D03*
X147472500Y-91440000D03*
G04 #@! TD*
D14*
G04 #@! TO.C,SW5*
X156795000Y-78400000D03*
X156845000Y-74000000D03*
G04 #@! TD*
D10*
G04 #@! TO.C,R23*
X171260000Y-80645000D03*
X172910000Y-80645000D03*
G04 #@! TD*
D11*
G04 #@! TO.C,Q3*
X145747500Y-86045000D03*
X145747500Y-87945000D03*
X147622500Y-86995000D03*
G04 #@! TD*
D10*
G04 #@! TO.C,R22*
X171260000Y-84455000D03*
X172910000Y-84455000D03*
G04 #@! TD*
G04 #@! TO.C,R17*
X161100000Y-80645000D03*
X162750000Y-80645000D03*
G04 #@! TD*
G04 #@! TO.C,R4*
X140780000Y-84455000D03*
X142430000Y-84455000D03*
G04 #@! TD*
G04 #@! TO.C,R6*
X140780000Y-89535000D03*
X142430000Y-89535000D03*
G04 #@! TD*
D13*
G04 #@! TO.C,C1*
X135750000Y-82550000D03*
X137300000Y-82550000D03*
G04 #@! TD*
D12*
G04 #@! TO.C,D6*
X161137500Y-91440000D03*
X162712500Y-91440000D03*
G04 #@! TD*
D13*
G04 #@! TO.C,C6*
X161150000Y-82550000D03*
X162700000Y-82550000D03*
G04 #@! TD*
D14*
G04 #@! TO.C,SW8*
X172035000Y-78400000D03*
X172085000Y-74000000D03*
G04 #@! TD*
D11*
G04 #@! TO.C,Q7*
X166067500Y-86045000D03*
X166067500Y-87945000D03*
X167942500Y-86995000D03*
G04 #@! TD*
D10*
G04 #@! TO.C,R5*
X140780000Y-80645000D03*
X142430000Y-80645000D03*
G04 #@! TD*
D12*
G04 #@! TO.C,D5*
X156057500Y-91440000D03*
X157632500Y-91440000D03*
G04 #@! TD*
D13*
G04 #@! TO.C,C2*
X140830000Y-82550000D03*
X142380000Y-82550000D03*
G04 #@! TD*
D10*
G04 #@! TO.C,R7*
X145860000Y-84455000D03*
X147510000Y-84455000D03*
G04 #@! TD*
G04 #@! TO.C,R21*
X166180000Y-89535000D03*
X167830000Y-89535000D03*
G04 #@! TD*
G04 #@! TO.C,R15*
X156020000Y-89535000D03*
X157670000Y-89535000D03*
G04 #@! TD*
G04 #@! TO.C,R20*
X166180000Y-80645000D03*
X167830000Y-80645000D03*
G04 #@! TD*
D13*
G04 #@! TO.C,C7*
X166230000Y-82550000D03*
X167780000Y-82550000D03*
G04 #@! TD*
D10*
G04 #@! TO.C,R11*
X150940000Y-80645000D03*
X152590000Y-80645000D03*
G04 #@! TD*
G04 #@! TO.C,R13*
X156020000Y-84455000D03*
X157670000Y-84455000D03*
G04 #@! TD*
G04 #@! TO.C,R16*
X161100000Y-84455000D03*
X162750000Y-84455000D03*
G04 #@! TD*
D11*
G04 #@! TO.C,Q8*
X171147500Y-86045000D03*
X171147500Y-87945000D03*
X173022500Y-86995000D03*
G04 #@! TD*
G04 #@! TO.C,Q1*
X135587500Y-86045000D03*
X135587500Y-87945000D03*
X137462500Y-86995000D03*
G04 #@! TD*
D10*
G04 #@! TO.C,R1*
X135700000Y-84455000D03*
X137350000Y-84455000D03*
G04 #@! TD*
G04 #@! TO.C,R18*
X161100000Y-89535000D03*
X162750000Y-89535000D03*
G04 #@! TD*
G04 #@! TO.C,R10*
X150940000Y-84455000D03*
X152590000Y-84455000D03*
G04 #@! TD*
D12*
G04 #@! TO.C,D2*
X140817500Y-91440000D03*
X142392500Y-91440000D03*
G04 #@! TD*
D11*
G04 #@! TO.C,Q4*
X150827500Y-86045000D03*
X150827500Y-87945000D03*
X152702500Y-86995000D03*
G04 #@! TD*
G04 #@! TO.C,Q5*
X155907500Y-86045000D03*
X155907500Y-87945000D03*
X157782500Y-86995000D03*
G04 #@! TD*
D10*
G04 #@! TO.C,R2*
X135700000Y-80645000D03*
X137350000Y-80645000D03*
G04 #@! TD*
G04 #@! TO.C,R9*
X145860000Y-89535000D03*
X147510000Y-89535000D03*
G04 #@! TD*
D14*
G04 #@! TO.C,SW1*
X136475000Y-78400000D03*
X136525000Y-74000000D03*
G04 #@! TD*
D10*
G04 #@! TO.C,R19*
X166180000Y-84455000D03*
X167830000Y-84455000D03*
G04 #@! TD*
D13*
G04 #@! TO.C,C8*
X171310000Y-82550000D03*
X172860000Y-82550000D03*
G04 #@! TD*
D10*
G04 #@! TO.C,R12*
X150940000Y-89535000D03*
X152590000Y-89535000D03*
G04 #@! TD*
M02*
