M48
; DRILL file {KiCad 6.0.9+dfsg-1} date Wed 16 Nov 2022 11:07:55 +08
; FORMAT={-:-/ absolute / metric / decimal}
; #@! TF.CreationDate,2022-11-16T11:07:55+08:00
; #@! TF.GenerationSoftware,Kicad,Pcbnew,6.0.9+dfsg-1
; #@! TF.FileFunction,Plated,1,2,PTH
FMAT,2
METRIC
; #@! TA.AperFunction,Plated,PTH,ViaDrill
T1C0.350
; #@! TA.AperFunction,Plated,PTH,ComponentDrill
T2C1.000
%
G90
G05
T1
X137.16Y-92.71
X138.43Y-84.455
X142.24Y-92.71
X143.51Y-84.455
X147.32Y-92.71
X148.59Y-84.455
X152.4Y-92.71
X153.67Y-84.455
X157.48Y-92.71
X158.75Y-84.455
X162.56Y-92.71
X163.83Y-84.455
X167.64Y-92.71
X168.91Y-84.455
X173.99Y-84.455
X178.435Y-73.66
X178.435Y-92.075
X179.705Y-73.66
X179.705Y-92.075
X180.975Y-73.66
X180.975Y-92.075
T2
X178.5Y-76.2
X178.5Y-78.74
X178.5Y-81.28
X178.5Y-83.82
X178.5Y-86.36
X178.5Y-88.9
X181.04Y-76.2
X181.04Y-78.74
X181.04Y-81.28
X181.04Y-83.82
X181.04Y-86.36
X181.04Y-88.9
T0
M30
